STARTFONT 2.1
COMMENT
COMMENT Converted from OpenType font "pixelade.ttf" by "otf2bdf 3.0".
COMMENT
FONT -FreeType-Pixelade-Medium-R-Normal--33-240-100-100-P-114-ISO10646-1
SIZE 24 100 100
FONTBOUNDINGBOX 172 34 0 -8
STARTPROPERTIES 19
FOUNDRY "FreeType"
FAMILY_NAME "Pixelade"
WEIGHT_NAME "Medium"
SLANT "R"
SETWIDTH_NAME "Normal"
ADD_STYLE_NAME ""
PIXEL_SIZE 33
POINT_SIZE 240
RESOLUTION_X 100
RESOLUTION_Y 100
SPACING "P"
AVERAGE_WIDTH 114
CHARSET_REGISTRY "ISO10646"
CHARSET_ENCODING "1"
FONT_ASCENT 25
FONT_DESCENT 7
COPYRIGHT "© 2001  josep Patau i Bellart & astramatantaviana typeface division  patau@antaviana.com, this typeface is Publishware, submit your works please, more info in www.astramat.com/typeface"
_OTF_FONTFILE "pixelade.ttf"
_OTF_PSNAME "Pixelade"
ENDPROPERTIES
CHARS 158
STARTCHAR 0020
ENCODING 32
SWIDTH 240 0
DWIDTH 8 0
BBX 0 0 0 0
BITMAP
ENDCHAR
STARTCHAR 0021
ENCODING 33
SWIDTH 150 0
DWIDTH 5 0
BBX 3 23 0 -5
BITMAP
E0
E0
E0
E0
E0
E0
E0
E0
E0
E0
E0
E0
E0
E0
E0
E0
E0
E0
00
00
E0
E0
E0
ENDCHAR
STARTCHAR 0022
ENCODING 34
SWIDTH 300 0
DWIDTH 10 0
BBX 8 8 0 18
BITMAP
E7
E7
E7
E7
E7
E7
E7
E7
ENDCHAR
STARTCHAR 0023
ENCODING 35
SWIDTH 630 0
DWIDTH 21 0
BBX 18 18 0 0
BITMAP
073800
073800
073800
073800
073800
FFFFC0
FFFFC0
FFFFC0
073800
073800
FFFFC0
FFFFC0
FFFFC0
073800
073800
073800
073800
073800
ENDCHAR
STARTCHAR 0024
ENCODING 36
SWIDTH 510 0
DWIDTH 17 0
BBX 13 24 1 -3
BITMAP
0700
0700
0700
1FF8
1FF8
FFF8
E700
E700
E700
E700
1FC0
1FC0
1FC0
0738
0738
0738
0738
0738
FFC0
FFC0
FFC0
0700
0700
0700
ENDCHAR
STARTCHAR 0025
ENCODING 37
SWIDTH 630 0
DWIDTH 21 0
BBX 18 18 0 0
BITMAP
1800C0
1800C0
FF07C0
E70700
E70700
183800
183800
18F800
00C000
00C000
070700
070700
070700
1838C0
1838C0
E00700
E00700
E00700
ENDCHAR
STARTCHAR 0026
ENCODING 38
SWIDTH 630 0
DWIDTH 21 0
BBX 18 18 0 0
BITMAP
003800
003800
00FF00
00C700
00C700
003800
003800
F8FF00
F8C700
F8C700
0700C0
0700C0
0700C0
0700C0
0700C0
38FF00
38FF00
38FF00
ENDCHAR
STARTCHAR 0027
ENCODING 39
SWIDTH 180 0
DWIDTH 6 0
BBX 3 8 1 10
BITMAP
E0
E0
E0
E0
E0
E0
E0
E0
ENDCHAR
STARTCHAR 0028
ENCODING 40
SWIDTH 300 0
DWIDTH 10 0
BBX 8 34 0 -8
BITMAP
07
07
18
18
18
E0
E0
E0
E0
E0
E0
E0
E0
E0
E0
E0
E0
E0
E0
E0
E0
E0
E0
E0
E0
E0
E0
E0
18
18
18
07
07
07
ENDCHAR
STARTCHAR 0029
ENCODING 41
SWIDTH 300 0
DWIDTH 10 0
BBX 8 34 0 -8
BITMAP
E0
E0
18
18
18
07
07
07
07
07
07
07
07
07
07
07
07
07
07
07
07
07
07
07
07
07
07
07
18
18
18
E0
E0
E0
ENDCHAR
STARTCHAR 002A
ENCODING 42
SWIDTH 480 0
DWIDTH 16 0
BBX 13 13 0 13
BITMAP
0700
0700
0700
E738
E738
1FC0
1FC0
1FC0
E738
E738
E738
0700
0700
ENDCHAR
STARTCHAR 002B
ENCODING 43
SWIDTH 480 0
DWIDTH 16 0
BBX 13 13 0 0
BITMAP
0700
0700
0700
0700
0700
FFF8
FFF8
FFF8
0700
0700
0700
0700
0700
ENDCHAR
STARTCHAR 002C
ENCODING 44
SWIDTH 240 0
DWIDTH 8 0
BBX 6 8 0 -3
BITMAP
1C
1C
1C
1C
1C
E0
E0
E0
ENDCHAR
STARTCHAR 002D
ENCODING 45
SWIDTH 390 0
DWIDTH 13 0
BBX 10 3 0 8
BITMAP
FFC0
FFC0
FFC0
ENDCHAR
STARTCHAR 002E
ENCODING 46
SWIDTH 150 0
DWIDTH 5 0
BBX 3 3 0 0
BITMAP
E0
E0
E0
ENDCHAR
STARTCHAR 002F
ENCODING 47
SWIDTH 630 0
DWIDTH 21 0
BBX 18 18 0 0
BITMAP
0000C0
0000C0
0007C0
000700
000700
003800
003800
00F800
00C000
00C000
070000
070000
070000
180000
180000
E00000
E00000
E00000
ENDCHAR
STARTCHAR 0030
ENCODING 48
SWIDTH 420 0
DWIDTH 14 0
BBX 10 18 1 0
BITMAP
1F00
1F00
FFC0
E0C0
E0C0
E0C0
E0C0
E0C0
E0C0
E0C0
E0C0
E0C0
E0C0
E0C0
E0C0
1F00
1F00
1F00
ENDCHAR
STARTCHAR 0031
ENCODING 49
SWIDTH 240 0
DWIDTH 8 0
BBX 6 18 0 0
BITMAP
1C
1C
FC
FC
FC
1C
1C
1C
1C
1C
1C
1C
1C
1C
1C
1C
1C
1C
ENDCHAR
STARTCHAR 0032
ENCODING 50
SWIDTH 420 0
DWIDTH 14 0
BBX 10 18 1 0
BITMAP
FF00
FF00
FFC0
00C0
00C0
00C0
00C0
1F00
1F00
1F00
E000
E000
E000
E000
E000
FFC0
FFC0
FFC0
ENDCHAR
STARTCHAR 0033
ENCODING 51
SWIDTH 420 0
DWIDTH 14 0
BBX 10 18 1 0
BITMAP
FF00
FF00
FFC0
00C0
00C0
00C0
00C0
1F00
1F00
1F00
00C0
00C0
00C0
00C0
00C0
FF00
FF00
FF00
ENDCHAR
STARTCHAR 0034
ENCODING 52
SWIDTH 420 0
DWIDTH 14 0
BBX 10 18 1 0
BITMAP
E1C0
E1C0
E1C0
E1C0
E1C0
E1C0
E1C0
FFC0
1FC0
1FC0
01C0
01C0
01C0
01C0
01C0
01C0
01C0
01C0
ENDCHAR
STARTCHAR 0035
ENCODING 53
SWIDTH 420 0
DWIDTH 14 0
BBX 10 18 1 0
BITMAP
FFC0
FFC0
FFC0
E000
E000
E000
E000
FF00
FF00
FF00
00C0
00C0
00C0
00C0
00C0
FF00
FF00
FF00
ENDCHAR
STARTCHAR 0036
ENCODING 54
SWIDTH 420 0
DWIDTH 14 0
BBX 10 18 1 0
BITMAP
1F00
1F00
FF00
E000
E000
E000
E000
FF00
FF00
FF00
E0C0
E0C0
E0C0
E0C0
E0C0
1F00
1F00
1F00
ENDCHAR
STARTCHAR 0037
ENCODING 55
SWIDTH 420 0
DWIDTH 14 0
BBX 10 18 1 0
BITMAP
FFC0
FFC0
FFC0
00C0
00C0
00C0
00C0
0700
0700
0700
0700
0700
0700
0700
0700
0700
0700
0700
ENDCHAR
STARTCHAR 0038
ENCODING 56
SWIDTH 420 0
DWIDTH 14 0
BBX 10 18 1 0
BITMAP
1F00
1F00
FFC0
E0C0
E0C0
E0C0
E0C0
1F00
1F00
1F00
E0C0
E0C0
E0C0
E0C0
E0C0
1F00
1F00
1F00
ENDCHAR
STARTCHAR 0039
ENCODING 57
SWIDTH 420 0
DWIDTH 14 0
BBX 10 18 1 0
BITMAP
1F00
1F00
FFC0
E0C0
E0C0
E0C0
E0C0
1FC0
1FC0
1FC0
00C0
00C0
00C0
00C0
00C0
1F00
1F00
1F00
ENDCHAR
STARTCHAR 003A
ENCODING 58
SWIDTH 180 0
DWIDTH 6 0
BBX 3 11 1 0
BITMAP
E0
E0
E0
00
00
00
00
00
E0
E0
E0
ENDCHAR
STARTCHAR 003B
ENCODING 59
SWIDTH 240 0
DWIDTH 8 0
BBX 5 14 0 -3
BITMAP
18
18
18
00
00
00
18
18
18
18
18
E0
E0
E0
ENDCHAR
STARTCHAR 003C
ENCODING 60
SWIDTH 420 0
DWIDTH 14 0
BBX 10 18 1 0
BITMAP
00C0
00C0
07C0
0700
0700
1800
1800
F800
E000
E000
1800
1800
1800
0700
0700
00C0
00C0
00C0
ENDCHAR
STARTCHAR 003D
ENCODING 61
SWIDTH 480 0
DWIDTH 16 0
BBX 13 8 0 5
BITMAP
FFF8
FFF8
FFF8
0000
0000
FFF8
FFF8
FFF8
ENDCHAR
STARTCHAR 003E
ENCODING 62
SWIDTH 420 0
DWIDTH 14 0
BBX 10 18 1 0
BITMAP
E000
E000
F800
1800
1800
0700
0700
07C0
00C0
00C0
0700
0700
0700
1800
1800
E000
E000
E000
ENDCHAR
STARTCHAR 003F
ENCODING 63
SWIDTH 420 0
DWIDTH 14 0
BBX 10 18 1 0
BITMAP
1F00
1F00
FFC0
E0C0
E0C0
00C0
00C0
0700
0700
0700
1800
1800
1800
0000
0000
1800
1800
1800
ENDCHAR
STARTCHAR 0040
ENCODING 64
SWIDTH 630 0
DWIDTH 21 0
BBX 18 18 0 -5
BITMAP
07FF00
07FF00
1FFFC0
1800C0
1800C0
E0F8C0
E0F8C0
E738C0
E738C0
E738C0
E0FF00
E0FF00
E0FF00
180000
180000
07FFC0
07FFC0
07FFC0
ENDCHAR
STARTCHAR 0041
ENCODING 65
SWIDTH 420 0
DWIDTH 14 0
BBX 10 18 1 0
BITMAP
1F00
1F00
FFC0
E0C0
E0C0
E0C0
E0C0
FFC0
FFC0
FFC0
E0C0
E0C0
E0C0
E0C0
E0C0
E0C0
E0C0
E0C0
ENDCHAR
STARTCHAR 0042
ENCODING 66
SWIDTH 420 0
DWIDTH 14 0
BBX 10 18 1 0
BITMAP
FF00
FF00
FFC0
E0C0
E0C0
E0C0
E0C0
FF00
FF00
FF00
E0C0
E0C0
E0C0
E0C0
E0C0
FF00
FF00
FF00
ENDCHAR
STARTCHAR 0043
ENCODING 67
SWIDTH 420 0
DWIDTH 14 0
BBX 10 18 1 0
BITMAP
1FC0
1FC0
FFC0
E000
E000
E000
E000
E000
E000
E000
E000
E000
E000
E000
E000
1FC0
1FC0
1FC0
ENDCHAR
STARTCHAR 0044
ENCODING 68
SWIDTH 420 0
DWIDTH 14 0
BBX 10 18 1 0
BITMAP
FF00
FF00
FFC0
E0C0
E0C0
E0C0
E0C0
E0C0
E0C0
E0C0
E0C0
E0C0
E0C0
E0C0
E0C0
FF00
FF00
FF00
ENDCHAR
STARTCHAR 0045
ENCODING 69
SWIDTH 390 0
DWIDTH 13 0
BBX 11 18 0 0
BITMAP
FFE0
FFE0
FFE0
E000
E000
E000
E000
FF00
FF00
FF00
E000
E000
E000
E000
E000
FFE0
FFE0
FFE0
ENDCHAR
STARTCHAR 0046
ENCODING 70
SWIDTH 390 0
DWIDTH 13 0
BBX 11 18 0 0
BITMAP
FFE0
FFE0
FFE0
E000
E000
E000
E000
FFE0
FFE0
FFE0
E000
E000
E000
E000
E000
E000
E000
E000
ENDCHAR
STARTCHAR 0047
ENCODING 71
SWIDTH 420 0
DWIDTH 14 0
BBX 10 18 1 0
BITMAP
1FC0
1FC0
FFC0
E000
E000
E000
E000
E7C0
E7C0
E7C0
E0C0
E0C0
E0C0
E0C0
E0C0
1F00
1F00
1F00
ENDCHAR
STARTCHAR 0048
ENCODING 72
SWIDTH 420 0
DWIDTH 14 0
BBX 10 18 1 0
BITMAP
E1C0
E1C0
E1C0
E1C0
E1C0
E1C0
E1C0
FFC0
FFC0
FFC0
E1C0
E1C0
E1C0
E1C0
E1C0
E1C0
E1C0
E1C0
ENDCHAR
STARTCHAR 0049
ENCODING 73
SWIDTH 330 0
DWIDTH 11 0
BBX 8 18 0 0
BITMAP
FF
FF
FF
38
38
38
38
38
38
38
38
38
38
38
38
FF
FF
FF
ENDCHAR
STARTCHAR 004A
ENCODING 74
SWIDTH 420 0
DWIDTH 14 0
BBX 10 18 1 0
BITMAP
00C0
00C0
00C0
00C0
00C0
00C0
00C0
00C0
00C0
00C0
00C0
E0C0
E0C0
E0C0
E0C0
FFC0
1F00
1F00
ENDCHAR
STARTCHAR 004B
ENCODING 75
SWIDTH 420 0
DWIDTH 14 0
BBX 10 18 1 0
BITMAP
E0C0
E0C0
E0C0
E0C0
E0C0
E700
E700
FF00
F800
F800
E700
E700
E700
E0C0
E0C0
E0C0
E0C0
E0C0
ENDCHAR
STARTCHAR 004C
ENCODING 76
SWIDTH 420 0
DWIDTH 14 0
BBX 11 18 1 0
BITMAP
E000
E000
E000
E000
E000
E000
E000
E000
E000
E000
E000
E000
E000
E000
E000
FFE0
FFE0
FFE0
ENDCHAR
STARTCHAR 004D
ENCODING 77
SWIDTH 540 0
DWIDTH 18 0
BBX 16 18 0 0
BITMAP
E007
E007
F83F
F83F
F83F
E7C7
E7C7
E7C7
E007
E007
E007
E007
E007
E007
E007
E007
E007
E007
ENDCHAR
STARTCHAR 004E
ENCODING 78
SWIDTH 480 0
DWIDTH 16 0
BBX 13 18 0 0
BITMAP
F838
F838
F838
F838
F838
E738
E738
E738
E738
E738
E738
E738
E738
E0F8
E0F8
E0F8
E0F8
E0F8
ENDCHAR
STARTCHAR 004F
ENCODING 79
SWIDTH 480 0
DWIDTH 16 0
BBX 13 18 0 0
BITMAP
1FC0
1FC0
FFF8
E038
E038
E038
E038
E038
E038
E038
E038
E038
E038
E038
E038
1FC0
1FC0
1FC0
ENDCHAR
STARTCHAR 0050
ENCODING 80
SWIDTH 420 0
DWIDTH 14 0
BBX 10 18 1 0
BITMAP
FF00
FF00
FFC0
E0C0
E0C0
E0C0
E0C0
FF00
FF00
FF00
E000
E000
E000
E000
E000
E000
E000
E000
ENDCHAR
STARTCHAR 0051
ENCODING 81
SWIDTH 420 0
DWIDTH 14 0
BBX 10 21 1 -3
BITMAP
1F00
1F00
FFC0
E0C0
E0C0
E0C0
E0C0
E0C0
E0C0
E0C0
E0C0
E0C0
E0C0
E0C0
E0C0
1F00
1F00
1F00
0700
0700
0700
ENDCHAR
STARTCHAR 0052
ENCODING 82
SWIDTH 420 0
DWIDTH 14 0
BBX 10 18 1 0
BITMAP
FF00
FF00
FFC0
E0C0
E0C0
E0C0
E0C0
FF00
FF00
FF00
E0C0
E0C0
E0C0
E0C0
E0C0
E0C0
E0C0
E0C0
ENDCHAR
STARTCHAR 0053
ENCODING 83
SWIDTH 420 0
DWIDTH 14 0
BBX 10 18 1 0
BITMAP
1FC0
1FC0
FFC0
E000
E000
E000
E000
1F00
1F00
1F00
00C0
00C0
00C0
00C0
00C0
FF00
FF00
FF00
ENDCHAR
STARTCHAR 0054
ENCODING 84
SWIDTH 510 0
DWIDTH 17 0
BBX 13 18 1 0
BITMAP
FFF8
FFF8
FFF8
0700
0700
0700
0700
0700
0700
0700
0700
0700
0700
0700
0700
0700
0700
0700
ENDCHAR
STARTCHAR 0055
ENCODING 85
SWIDTH 420 0
DWIDTH 14 0
BBX 10 18 1 0
BITMAP
E0C0
E0C0
E0C0
E0C0
E0C0
E0C0
E0C0
E0C0
E0C0
E0C0
E0C0
E0C0
E0C0
E0C0
E0C0
FFC0
1F00
1F00
ENDCHAR
STARTCHAR 0056
ENCODING 86
SWIDTH 480 0
DWIDTH 16 0
BBX 13 18 0 0
BITMAP
E038
E038
E038
E038
E038
E038
E038
E038
18C0
18C0
18C0
18C0
18C0
18C0
18C0
0700
0700
0700
ENDCHAR
STARTCHAR 0057
ENCODING 87
SWIDTH 630 0
DWIDTH 21 0
BBX 18 18 0 0
BITMAP
E000C0
E000C0
E000C0
E000C0
E000C0
E0C0C0
E0C0C0
E0C0C0
18C700
18C700
18C700
18C700
18C700
18C700
18C700
1F3F00
1F3F00
1F3F00
ENDCHAR
STARTCHAR 0058
ENCODING 88
SWIDTH 480 0
DWIDTH 16 0
BBX 13 18 0 0
BITMAP
E038
E038
F8F8
18C0
18C0
18C0
18C0
0700
0700
0700
18C0
18C0
18C0
18C0
18C0
E038
E038
E038
ENDCHAR
STARTCHAR 0059
ENCODING 89
SWIDTH 480 0
DWIDTH 16 0
BBX 13 18 0 0
BITMAP
E038
E038
E038
E038
E038
18C0
18C0
18C0
18C0
18C0
0700
0700
0700
0700
0700
0700
0700
0700
ENDCHAR
STARTCHAR 005A
ENCODING 90
SWIDTH 480 0
DWIDTH 16 0
BBX 13 18 0 0
BITMAP
FFF8
FFF8
FFF8
0038
0038
00C0
00C0
07C0
0700
0700
1800
1800
1800
E000
E000
FFF8
FFF8
FFF8
ENDCHAR
STARTCHAR 005B
ENCODING 91
SWIDTH 300 0
DWIDTH 10 0
BBX 8 34 0 -8
BITMAP
FF
FF
FF
E0
E0
E0
E0
E0
E0
E0
E0
E0
E0
E0
E0
E0
E0
E0
E0
E0
E0
E0
E0
E0
E0
E0
E0
E0
E0
E0
E0
FF
FF
FF
ENDCHAR
STARTCHAR 005C
ENCODING 92
SWIDTH 630 0
DWIDTH 21 0
BBX 18 18 0 0
BITMAP
E00000
E00000
F80000
180000
180000
070000
070000
07C000
00C000
00C000
003800
003800
003800
000700
000700
0000C0
0000C0
0000C0
ENDCHAR
STARTCHAR 005D
ENCODING 93
SWIDTH 300 0
DWIDTH 10 0
BBX 8 34 0 -8
BITMAP
FF
FF
FF
07
07
07
07
07
07
07
07
07
07
07
07
07
07
07
07
07
07
07
07
07
07
07
07
07
07
07
07
FF
FF
FF
ENDCHAR
STARTCHAR 005E
ENCODING 94
SWIDTH 300 0
DWIDTH 10 0
BBX 0 0 0 0
BITMAP
ENDCHAR
STARTCHAR 005F
ENCODING 95
SWIDTH 420 0
DWIDTH 14 0
BBX 10 3 1 0
BITMAP
FFC0
FFC0
FFC0
ENDCHAR
STARTCHAR 0060
ENCODING 96
SWIDTH 240 0
DWIDTH 8 0
BBX 5 5 0 13
BITMAP
E0
A0
78
28
38
ENDCHAR
STARTCHAR 0061
ENCODING 97
SWIDTH 390 0
DWIDTH 13 0
BBX 10 13 0 0
BITMAP
1F00
1F00
1F00
00C0
00C0
1FC0
1FC0
1FC0
E0C0
E0C0
1FC0
1FC0
1FC0
ENDCHAR
STARTCHAR 0062
ENCODING 98
SWIDTH 390 0
DWIDTH 13 0
BBX 10 18 0 0
BITMAP
E000
E000
E000
E000
E000
FF00
FF00
FF00
E0C0
E0C0
E0C0
E0C0
E0C0
E0C0
E0C0
FF00
FF00
FF00
ENDCHAR
STARTCHAR 0063
ENCODING 99
SWIDTH 390 0
DWIDTH 13 0
BBX 10 13 0 0
BITMAP
1FC0
1FC0
1FC0
E000
E000
E000
E000
E000
E000
E000
1FC0
1FC0
1FC0
ENDCHAR
STARTCHAR 0064
ENCODING 100
SWIDTH 420 0
DWIDTH 14 0
BBX 10 18 1 0
BITMAP
01C0
01C0
01C0
01C0
01C0
1FC0
1FC0
1FC0
E1C0
E1C0
E1C0
E1C0
E1C0
E1C0
E1C0
1FC0
1FC0
1FC0
ENDCHAR
STARTCHAR 0065
ENCODING 101
SWIDTH 390 0
DWIDTH 13 0
BBX 10 13 0 0
BITMAP
1F00
1F00
1F00
E0C0
E0C0
FF00
FF00
FF00
E000
E000
1F00
1F00
1F00
ENDCHAR
STARTCHAR 0066
ENCODING 102
SWIDTH 420 0
DWIDTH 14 0
BBX 10 18 1 0
BITMAP
07C0
07C0
3FC0
3800
3800
FF00
FF00
FF00
3800
3800
3800
3800
3800
3800
3800
3800
3800
3800
ENDCHAR
STARTCHAR 0067
ENCODING 103
SWIDTH 420 0
DWIDTH 14 0
BBX 10 18 1 -5
BITMAP
1F00
1F00
FFC0
E0C0
E0C0
E0C0
E0C0
E0C0
E0C0
E0C0
1FC0
1FC0
1FC0
00C0
00C0
1F00
1F00
1F00
ENDCHAR
STARTCHAR 0068
ENCODING 104
SWIDTH 420 0
DWIDTH 14 0
BBX 10 18 1 0
BITMAP
E000
E000
E000
E000
E000
FF00
FF00
FF00
E0C0
E0C0
E0C0
E0C0
E0C0
E0C0
E0C0
E0C0
E0C0
E0C0
ENDCHAR
STARTCHAR 0069
ENCODING 105
SWIDTH 180 0
DWIDTH 6 0
BBX 3 18 1 0
BITMAP
E0
E0
E0
00
00
E0
E0
E0
E0
E0
E0
E0
E0
E0
E0
E0
E0
E0
ENDCHAR
STARTCHAR 006A
ENCODING 106
SWIDTH 210 0
DWIDTH 7 0
BBX 5 23 0 -5
BITMAP
18
18
18
00
00
18
18
18
18
18
18
18
18
18
18
18
18
18
18
18
F8
E0
E0
ENDCHAR
STARTCHAR 006B
ENCODING 107
SWIDTH 420 0
DWIDTH 14 0
BBX 10 18 1 0
BITMAP
E000
E000
E0C0
E0C0
E0C0
E700
E700
FF00
F800
F800
E700
E700
E700
E0C0
E0C0
E0C0
E0C0
E0C0
ENDCHAR
STARTCHAR 006C
ENCODING 108
SWIDTH 180 0
DWIDTH 6 0
BBX 3 18 1 0
BITMAP
E0
E0
E0
E0
E0
E0
E0
E0
E0
E0
E0
E0
E0
E0
E0
E0
E0
E0
ENDCHAR
STARTCHAR 006D
ENCODING 109
SWIDTH 630 0
DWIDTH 21 0
BBX 18 13 0 0
BITMAP
FFFE00
FFFE00
FFFE00
E1C1C0
E1C1C0
E1C1C0
E1C1C0
E1C1C0
E1C1C0
E1C1C0
E1C1C0
E1C1C0
E1C1C0
ENDCHAR
STARTCHAR 006E
ENCODING 110
SWIDTH 390 0
DWIDTH 13 0
BBX 10 13 1 0
BITMAP
FF00
FF00
FF00
E0C0
E0C0
E0C0
E0C0
E0C0
E0C0
E0C0
E0C0
E0C0
E0C0
ENDCHAR
STARTCHAR 006F
ENCODING 111
SWIDTH 390 0
DWIDTH 13 0
BBX 10 13 0 0
BITMAP
1F00
1F00
1F00
E0C0
E0C0
E0C0
E0C0
E0C0
E0C0
E0C0
1F00
1F00
1F00
ENDCHAR
STARTCHAR 0070
ENCODING 112
SWIDTH 390 0
DWIDTH 13 0
BBX 10 18 0 -5
BITMAP
FF00
FF00
FFC0
E0C0
E0C0
E0C0
E0C0
E0C0
E0C0
E0C0
FF00
FF00
FF00
E000
E000
E000
E000
E000
ENDCHAR
STARTCHAR 0071
ENCODING 113
SWIDTH 420 0
DWIDTH 14 0
BBX 10 18 1 -5
BITMAP
1FC0
1FC0
FFC0
E1C0
E1C0
E1C0
E1C0
E1C0
E1C0
E1C0
1FC0
1FC0
1FC0
01C0
01C0
01C0
01C0
01C0
ENDCHAR
STARTCHAR 0072
ENCODING 114
SWIDTH 390 0
DWIDTH 13 0
BBX 10 13 0 0
BITMAP
E7C0
E7C0
FFC0
F800
F800
E000
E000
E000
E000
E000
E000
E000
E000
ENDCHAR
STARTCHAR 0073
ENCODING 115
SWIDTH 390 0
DWIDTH 13 0
BBX 10 13 0 0
BITMAP
1FC0
1FC0
FFC0
E000
E000
1F00
1F00
1F00
00C0
00C0
FF00
FF00
FF00
ENDCHAR
STARTCHAR 0074
ENCODING 116
SWIDTH 240 0
DWIDTH 8 0
BBX 5 18 0 0
BITMAP
E0
E0
E0
E0
E0
F8
F8
F8
E0
E0
E0
E0
E0
E0
E0
F8
18
18
ENDCHAR
STARTCHAR 0075
ENCODING 117
SWIDTH 390 0
DWIDTH 13 0
BBX 10 13 0 0
BITMAP
E1C0
E1C0
E1C0
E1C0
E1C0
E1C0
E1C0
E1C0
E1C0
E1C0
1FC0
1FC0
1FC0
ENDCHAR
STARTCHAR 0076
ENCODING 118
SWIDTH 390 0
DWIDTH 13 0
BBX 10 13 0 0
BITMAP
E0C0
E0C0
E0C0
E0C0
E0C0
E0C0
E0C0
E0C0
18C0
18C0
0700
0700
0700
ENDCHAR
STARTCHAR 0077
ENCODING 119
SWIDTH 630 0
DWIDTH 21 0
BBX 18 13 0 0
BITMAP
E001C0
E001C0
E0C1C0
E0C1C0
E0C1C0
E0C1C0
E0C1C0
E0C1C0
E0C1C0
E0C1C0
1F3E00
1F3E00
1F3E00
ENDCHAR
STARTCHAR 0078
ENCODING 120
SWIDTH 480 0
DWIDTH 16 0
BBX 13 13 0 0
BITMAP
E038
E038
F8F8
18C0
18C0
0700
0700
0700
18C0
18C0
E038
E038
E038
ENDCHAR
STARTCHAR 0079
ENCODING 121
SWIDTH 420 0
DWIDTH 14 0
BBX 10 18 1 -5
BITMAP
E0C0
E0C0
E0C0
E0C0
E0C0
E0C0
E0C0
E0C0
E0C0
E0C0
1FC0
1FC0
1FC0
00C0
00C0
1FC0
1F00
1F00
ENDCHAR
STARTCHAR 007A
ENCODING 122
SWIDTH 390 0
DWIDTH 13 0
BBX 10 13 0 0
BITMAP
FFC0
FFC0
FFC0
00C0
00C0
1F00
1F00
1F00
E000
E000
FFC0
FFC0
FFC0
ENDCHAR
STARTCHAR 007B
ENCODING 123
SWIDTH 300 0
DWIDTH 10 0
BBX 8 18 0 0
BITMAP
1F
1F
1F
18
18
18
18
E0
E0
E0
18
18
18
18
18
1F
1F
1F
ENDCHAR
STARTCHAR 007C
ENCODING 124
SWIDTH 180 0
DWIDTH 6 0
BBX 3 18 1 0
BITMAP
E0
E0
E0
E0
E0
E0
E0
E0
E0
E0
E0
E0
E0
E0
E0
E0
E0
E0
ENDCHAR
STARTCHAR 007D
ENCODING 125
SWIDTH 330 0
DWIDTH 11 0
BBX 8 18 0 0
BITMAP
FC
FC
FC
1C
1C
1C
1C
03
03
03
1C
1C
1C
1C
1C
FC
FC
FC
ENDCHAR
STARTCHAR 007E
ENCODING 126
SWIDTH 390 0
DWIDTH 13 0
BBX 0 0 0 0
BITMAP
ENDCHAR
STARTCHAR 00A0
ENCODING 160
SWIDTH 390 0
DWIDTH 13 0
BBX 0 0 0 0
BITMAP
ENDCHAR
STARTCHAR 00A1
ENCODING 161
SWIDTH 150 0
DWIDTH 5 0
BBX 3 24 0 0
BITMAP
E0
E0
E0
00
00
00
E0
E0
E0
E0
E0
E0
E0
E0
E0
E0
E0
E0
E0
E0
E0
E0
E0
E0
ENDCHAR
STARTCHAR 00A8
ENCODING 168
SWIDTH 330 0
DWIDTH 11 0
BBX 8 3 0 16
BITMAP
EF
A9
EF
ENDCHAR
STARTCHAR 00A9
ENCODING 169
SWIDTH 690 0
DWIDTH 23 0
BBX 21 18 0 0
BITMAP
07FE00
07FE00
1801C0
1801C0
1801C0
E0F838
E0F838
E70038
E70038
E70038
E0F838
E0F838
E0F838
1801C0
1801C0
07FE00
07FE00
07FE00
ENDCHAR
STARTCHAR 00AA
ENCODING 170
SWIDTH 300 0
DWIDTH 10 0
BBX 8 13 0 5
BITMAP
1F
1F
1F
E7
E7
1F
1F
1F
00
00
FF
FF
FF
ENDCHAR
STARTCHAR 00AB
ENCODING 171
SWIDTH 720 0
DWIDTH 24 0
BBX 21 18 1 0
BITMAP
00C038
00C038
07C0F8
0700C0
0700C0
180700
180700
F83F00
E03800
E03800
180700
180700
180700
0700C0
0700C0
00C038
00C038
00C038
ENDCHAR
STARTCHAR 00AE
ENCODING 174
SWIDTH 720 0
DWIDTH 24 0
BBX 21 18 1 0
BITMAP
07FE00
07FE00
1801C0
1801C0
1801C0
E0F838
E0F838
E0F838
E0F838
E0F838
E0E638
E0E638
E0E638
1801C0
1801C0
07FE00
07FE00
07FE00
ENDCHAR
STARTCHAR 00B4
ENCODING 180
SWIDTH 240 0
DWIDTH 8 0
BBX 5 5 0 13
BITMAP
18
18
E0
E0
E0
ENDCHAR
STARTCHAR 00B7
ENCODING 183
SWIDTH 330 0
DWIDTH 11 0
BBX 8 8 0 5
BITMAP
38
38
38
FF
FF
FF
38
38
ENDCHAR
STARTCHAR 00BA
ENCODING 186
SWIDTH 300 0
DWIDTH 10 0
BBX 8 13 0 5
BITMAP
18
18
18
E7
E7
18
18
18
00
00
FF
FF
FF
ENDCHAR
STARTCHAR 00BB
ENCODING 187
SWIDTH 720 0
DWIDTH 24 0
BBX 21 18 1 0
BITMAP
E03800
E03800
F83F00
180700
180700
0700C0
0700C0
07C0F8
00C038
00C038
0700C0
0700C0
0700C0
180700
180700
E03800
E03800
E03800
ENDCHAR
STARTCHAR 00BF
ENCODING 191
SWIDTH 420 0
DWIDTH 14 0
BBX 10 18 1 0
BITMAP
0700
0700
0700
0000
0000
0700
0700
1F00
1800
1800
E000
E000
E000
E0C0
E0C0
1F00
1F00
1F00
ENDCHAR
STARTCHAR 00C0
ENCODING 192
SWIDTH 420 0
DWIDTH 14 0
BBX 10 26 1 0
BITMAP
1800
1800
0700
0700
0700
0000
0000
0000
1F00
1F00
FFC0
E0C0
E0C0
E0C0
E0C0
FFC0
FFC0
FFC0
E0C0
E0C0
E0C0
E0C0
E0C0
E0C0
E0C0
E0C0
ENDCHAR
STARTCHAR 00C1
ENCODING 193
SWIDTH 390 0
DWIDTH 13 0
BBX 10 26 0 0
BITMAP
00C0
00C0
0700
0700
0700
0000
0000
0000
1F00
1F00
FFC0
E0C0
E0C0
E0C0
E0C0
FFC0
FFC0
FFC0
E0C0
E0C0
E0C0
E0C0
E0C0
E0C0
E0C0
E0C0
ENDCHAR
STARTCHAR 00C4
ENCODING 196
SWIDTH 390 0
DWIDTH 13 0
BBX 10 24 0 0
BITMAP
18C0
18C0
18C0
0000
0000
0000
1F00
1F00
FFC0
E0C0
E0C0
E0C0
E0C0
FFC0
FFC0
FFC0
E0C0
E0C0
E0C0
E0C0
E0C0
E0C0
E0C0
E0C0
ENDCHAR
STARTCHAR 00C5
ENCODING 197
SWIDTH 5280 0
DWIDTH 176 0
BBX 172 26 0 -6
BITMAP
000001FC000000000000000000000000000000000000
000007FF000000000000000000000000000000000000
0E700FFF800000000000000000000000000000000000
0E701FFFC00000000000070000000000000000000380
1E703F07E00000000000070000000000000000000380
3CF07C01F00000000000070000000000000000000380
3CE0F800F00000000000070000000000000000000380
79E0F0F8780003F803F007001E1F8001F0F803F00380
71C0E3FC38000FFC0FFC3FE3BE7FE03BFBFE0FFC1FF0
F3C1E7FE3C001FFE1FFE3FE3FEFFF03FFFFE1FFE1FF0
E781C7FF1C001C061C0E3FE3E0E0703C3E0F1C0E1FF0
E701CF8F9C001C071C0F0703C0E070381C071C0E0380
E701CF079C0000071E000703C00070381C07000E0380
E701CE039C00001F0FC007038001F0381C07003E0380
E701CE039C0007FF0FFC0703803FF0381C0707FE0380
E783CE039C001FF701FE070380FF70381C071FEE0380
F3C79E079C003C07001F070381E070381C073C0E0380
73FF9E0F380038070007070381C070381C07380E0380
79FF3C0F380038071C07070381C070381C07380E0380
7CFE3C1E7800380F1C07070381C0F0381C07381E0380
3E00F81CF0003FFF9FFE07E381FFFC381C073FFF83F0
1F83F83CF0001FFF8FFC07E380FFBC381C071FF783F0
0FFFF039E00007E383F003E3803E3C381C0707C781F0
07FFE039C00000000000000000000000000000000000
03FF8039C00000000000000000000000000000000000
00FE0000000000000000000000000000000000000000
ENDCHAR
STARTCHAR 00C7
ENCODING 199
SWIDTH 390 0
DWIDTH 13 0
BBX 11 26 0 -8
BITMAP
1FE0
1FE0
FFE0
E000
E000
E000
E000
E000
E000
E000
E000
E000
E000
E000
E000
1FE0
1FE0
1FE0
0700
0700
1800
1800
1800
0700
0700
0700
ENDCHAR
STARTCHAR 00C8
ENCODING 200
SWIDTH 390 0
DWIDTH 13 0
BBX 11 26 0 0
BITMAP
1800
1800
0700
0700
0700
0000
0000
0000
FFE0
FFE0
FFE0
E000
E000
E000
E000
FF00
FF00
FF00
E000
E000
E000
E000
E000
FFE0
FFE0
FFE0
ENDCHAR
STARTCHAR 00C9
ENCODING 201
SWIDTH 390 0
DWIDTH 13 0
BBX 10 26 0 0
BITMAP
00C0
00C0
0700
0700
0700
0000
0000
0000
FFC0
FFC0
FFC0
E000
E000
E000
E000
FF00
FF00
FF00
E000
E000
E000
E000
E000
FFC0
FFC0
FFC0
ENDCHAR
STARTCHAR 00CB
ENCODING 203
SWIDTH 390 0
DWIDTH 13 0
BBX 10 24 0 0
BITMAP
18C0
18C0
18C0
0000
0000
0000
FFC0
FFC0
FFC0
E000
E000
E000
E000
FF00
FF00
FF00
E000
E000
E000
E000
E000
FFC0
FFC0
FFC0
ENDCHAR
STARTCHAR 00CC
ENCODING 204
SWIDTH 330 0
DWIDTH 11 0
BBX 8 26 0 0
BITMAP
E0
E0
18
18
18
00
00
00
FF
FF
FF
18
18
18
18
18
18
18
18
18
18
18
18
FF
FF
FF
ENDCHAR
STARTCHAR 00CD
ENCODING 205
SWIDTH 300 0
DWIDTH 10 0
BBX 8 26 0 0
BITMAP
07
07
38
38
38
00
00
00
FF
FF
FF
38
38
38
38
38
38
38
38
38
38
38
38
FF
FF
FF
ENDCHAR
STARTCHAR 00CF
ENCODING 207
SWIDTH 300 0
DWIDTH 10 0
BBX 8 24 0 0
BITMAP
E7
E7
E7
00
00
00
FF
FF
FF
18
18
18
18
18
18
18
18
18
18
18
18
FF
FF
FF
ENDCHAR
STARTCHAR 00D1
ENCODING 209
SWIDTH 510 0
DWIDTH 17 0
BBX 13 24 1 0
BITMAP
FFC0
FFC0
FFC0
0000
0000
0000
F838
F838
F838
F838
F838
E738
E738
E738
E738
E738
E738
E738
E738
E0F8
E0F8
E0F8
E0F8
E0F8
ENDCHAR
STARTCHAR 00D2
ENCODING 210
SWIDTH 480 0
DWIDTH 16 0
BBX 13 26 0 0
BITMAP
1800
1800
0700
0700
0700
0000
0000
0000
1FE0
1FE0
FFF8
E018
E018
E018
E018
E018
E018
E018
E018
E018
E018
E018
E018
1FE0
1FE0
1FE0
ENDCHAR
STARTCHAR 00D3
ENCODING 211
SWIDTH 480 0
DWIDTH 16 0
BBX 13 26 0 0
BITMAP
00C0
00C0
0700
0700
0700
0000
0000
0000
1FC0
1FC0
FFF8
E038
E038
E038
E038
E038
E038
E038
E038
E038
E038
E038
E038
1FC0
1FC0
1FC0
ENDCHAR
STARTCHAR 00D6
ENCODING 214
SWIDTH 480 0
DWIDTH 16 0
BBX 13 24 0 0
BITMAP
19C0
19C0
19C0
0000
0000
0000
1FC0
1FC0
FFF8
E038
E038
E038
E038
E038
E038
E038
E038
E038
E038
E038
E038
1FC0
1FC0
1FC0
ENDCHAR
STARTCHAR 00D9
ENCODING 217
SWIDTH 390 0
DWIDTH 13 0
BBX 10 26 0 0
BITMAP
1800
1800
0700
0700
0700
0000
0000
0000
E0C0
E0C0
E0C0
E0C0
E0C0
E0C0
E0C0
E0C0
E0C0
E0C0
E0C0
E0C0
E0C0
E0C0
E0C0
FFC0
1F00
1F00
ENDCHAR
STARTCHAR 00DA
ENCODING 218
SWIDTH 420 0
DWIDTH 14 0
BBX 11 26 1 0
BITMAP
00E0
00E0
0700
0700
0700
0000
0000
0000
E0E0
E0E0
E0E0
E0E0
E0E0
E0E0
E0E0
E0E0
E0E0
E0E0
E0E0
E0E0
E0E0
E0E0
E0E0
FFE0
1F00
1F00
ENDCHAR
STARTCHAR 00DC
ENCODING 220
SWIDTH 420 0
DWIDTH 14 0
BBX 10 24 1 0
BITMAP
18C0
18C0
18C0
0000
0000
0000
E0C0
E0C0
E0C0
E0C0
E0C0
E0C0
E0C0
E0C0
E0C0
E0C0
E0C0
E0C0
E0C0
E0C0
E0C0
FFC0
1F00
1F00
ENDCHAR
STARTCHAR 00E0
ENCODING 224
SWIDTH 390 0
DWIDTH 13 0
BBX 10 21 0 0
BITMAP
1800
1800
1800
0700
0700
0700
0000
0000
1F00
1F00
1F00
00C0
00C0
1FC0
1FC0
1FC0
E0C0
E0C0
1FC0
1FC0
1FC0
ENDCHAR
STARTCHAR 00E1
ENCODING 225
SWIDTH 390 0
DWIDTH 13 0
BBX 10 21 0 0
BITMAP
00C0
00C0
00C0
0700
0700
0700
0000
0000
1F00
1F00
1F00
00C0
00C0
1FC0
1FC0
1FC0
E0C0
E0C0
1FC0
1FC0
1FC0
ENDCHAR
STARTCHAR 00E2
ENCODING 226
SWIDTH 390 0
DWIDTH 13 0
BBX 0 0 0 0
BITMAP
ENDCHAR
STARTCHAR 00E3
ENCODING 227
SWIDTH 390 0
DWIDTH 13 0
BBX 0 0 0 0
BITMAP
ENDCHAR
STARTCHAR 00E4
ENCODING 228
SWIDTH 420 0
DWIDTH 14 0
BBX 10 18 1 0
BITMAP
18C0
18C0
18C0
0000
0000
1F00
1F00
1F00
00C0
00C0
1FC0
1FC0
1FC0
E0C0
E0C0
1FC0
1FC0
1FC0
ENDCHAR
STARTCHAR 00E5
ENCODING 229
SWIDTH 390 0
DWIDTH 13 0
BBX 0 0 0 0
BITMAP
ENDCHAR
STARTCHAR 00E7
ENCODING 231
SWIDTH 420 0
DWIDTH 14 0
BBX 11 18 1 -5
BITMAP
1FE0
1FE0
FFE0
E000
E000
E000
E000
E000
E000
E000
1FE0
1FE0
1FE0
0700
0700
1800
1800
1800
ENDCHAR
STARTCHAR 00E8
ENCODING 232
SWIDTH 420 0
DWIDTH 14 0
BBX 10 21 1 0
BITMAP
1800
1800
1800
0700
0700
0700
0000
0000
1F00
1F00
1F00
E0C0
E0C0
FF00
FF00
FF00
E000
E000
1F00
1F00
1F00
ENDCHAR
STARTCHAR 00E9
ENCODING 233
SWIDTH 420 0
DWIDTH 14 0
BBX 10 21 1 0
BITMAP
00C0
00C0
00C0
0700
0700
0700
0000
0000
1F00
1F00
1F00
E0C0
E0C0
FF00
FF00
FF00
E000
E000
1F00
1F00
1F00
ENDCHAR
STARTCHAR 00EB
ENCODING 235
SWIDTH 420 0
DWIDTH 14 0
BBX 10 18 1 0
BITMAP
E700
E700
E700
0000
0000
1F00
1F00
1F00
E0C0
E0C0
FF00
FF00
FF00
E000
E000
1F00
1F00
1F00
ENDCHAR
STARTCHAR 00EC
ENCODING 236
SWIDTH 240 0
DWIDTH 8 0
BBX 5 21 0 0
BITMAP
E0
E0
E0
18
18
18
00
00
18
18
18
18
18
18
18
18
18
18
18
18
18
ENDCHAR
STARTCHAR 00ED
ENCODING 237
SWIDTH 270 0
DWIDTH 9 0
BBX 5 21 1 0
BITMAP
18
18
18
E0
E0
E0
00
00
E0
E0
E0
E0
E0
E0
E0
E0
E0
E0
E0
E0
E0
ENDCHAR
STARTCHAR 00EF
ENCODING 239
SWIDTH 300 0
DWIDTH 10 0
BBX 8 18 0 0
BITMAP
E7
E7
E7
00
00
18
18
18
18
18
18
18
18
18
18
18
18
18
ENDCHAR
STARTCHAR 00F1
ENCODING 241
SWIDTH 420 0
DWIDTH 14 0
BBX 10 18 1 0
BITMAP
FF00
FF00
FF00
0000
0000
FF00
FF00
FF00
E0C0
E0C0
E0C0
E0C0
E0C0
E0C0
E0C0
E0C0
E0C0
E0C0
ENDCHAR
STARTCHAR 00F2
ENCODING 242
SWIDTH 390 0
DWIDTH 13 0
BBX 10 21 0 0
BITMAP
1800
1800
1800
0700
0700
0700
0000
0000
1F00
1F00
1F00
E1C0
E1C0
E1C0
E1C0
E1C0
E1C0
E1C0
1F00
1F00
1F00
ENDCHAR
STARTCHAR 00F3
ENCODING 243
SWIDTH 390 0
DWIDTH 13 0
BBX 10 21 0 0
BITMAP
00C0
00C0
00C0
0700
0700
0700
0000
0000
1F00
1F00
1F00
E0C0
E0C0
E0C0
E0C0
E0C0
E0C0
E0C0
1F00
1F00
1F00
ENDCHAR
STARTCHAR 00F6
ENCODING 246
SWIDTH 420 0
DWIDTH 14 0
BBX 10 18 1 0
BITMAP
E700
E700
E700
0000
0000
1F00
1F00
1F00
E0C0
E0C0
E0C0
E0C0
E0C0
E0C0
E0C0
1F00
1F00
1F00
ENDCHAR
STARTCHAR 00F7
ENCODING 247
SWIDTH 480 0
DWIDTH 16 0
BBX 13 13 0 3
BITMAP
0700
0700
0700
0000
0000
FFF8
FFF8
FFF8
0000
0000
0700
0700
0700
ENDCHAR
STARTCHAR 00F9
ENCODING 249
SWIDTH 420 0
DWIDTH 14 0
BBX 10 21 1 0
BITMAP
1800
1800
1800
0700
0700
0700
0000
0000
E0C0
E0C0
E0C0
E0C0
E0C0
E0C0
E0C0
E0C0
E0C0
E0C0
1F00
1F00
1F00
ENDCHAR
STARTCHAR 00FA
ENCODING 250
SWIDTH 420 0
DWIDTH 14 0
BBX 10 21 1 0
BITMAP
00C0
00C0
00C0
0700
0700
0700
0000
0000
E0C0
E0C0
E0C0
E0C0
E0C0
E0C0
E0C0
E0C0
E0C0
E0C0
1F00
1F00
1F00
ENDCHAR
STARTCHAR 00FC
ENCODING 252
SWIDTH 420 0
DWIDTH 14 0
BBX 10 18 1 0
BITMAP
18C0
18C0
18C0
0000
0000
E0C0
E0C0
E0C0
E0C0
E0C0
E0C0
E0C0
E0C0
E0C0
E0C0
1F00
1F00
1F00
ENDCHAR
STARTCHAR 0131
ENCODING 305
SWIDTH 180 0
DWIDTH 6 0
BBX 3 8 1 10
BITMAP
E0
E0
E0
E0
E0
E0
E0
E0
ENDCHAR
STARTCHAR 02D9
ENCODING 729
SWIDTH 330 0
DWIDTH 11 0
BBX 8 8 0 5
BITMAP
38
38
38
FF
FF
FF
38
38
ENDCHAR
STARTCHAR 2010
ENCODING 8208
SWIDTH 390 0
DWIDTH 13 0
BBX 10 3 0 8
BITMAP
FFC0
FFC0
FFC0
ENDCHAR
STARTCHAR 2022
ENCODING 8226
SWIDTH 390 0
DWIDTH 13 0
BBX 10 10 0 3
BITMAP
1F00
1F00
FFC0
FFC0
FFC0
FFC0
FFC0
1F00
1F00
1F00
ENDCHAR
STARTCHAR 2026
ENCODING 8230
SWIDTH 450 0
DWIDTH 15 0
BBX 13 3 0 0
BITMAP
E738
E738
E738
ENDCHAR
STARTCHAR 2039
ENCODING 8249
SWIDTH 690 0
DWIDTH 23 0
BBX 18 18 0 0
BITMAP
FFFFC0
FFFFC0
FFFFC0
E001C0
E001C0
E0F9C0
E0F9C0
E7F9C0
E7F9C0
E7F9C0
E0F9C0
E0F9C0
E0F9C0
E001C0
E001C0
FFFFC0
FFFFC0
FFFFC0
ENDCHAR
STARTCHAR 203A
ENCODING 8250
SWIDTH 690 0
DWIDTH 23 0
BBX 18 18 0 0
BITMAP
FFFFC0
FFFFC0
FFFFC0
E001C0
E001C0
E7C1C0
E7C1C0
E7F9C0
E7F9C0
E7F9C0
E7C1C0
E7C1C0
E7C1C0
E001C0
E001C0
FFFFC0
FFFFC0
FFFFC0
ENDCHAR
STARTCHAR 2219
ENCODING 8729
SWIDTH 330 0
DWIDTH 11 0
BBX 8 8 0 5
BITMAP
38
38
38
FF
FF
FF
38
38
ENDCHAR
STARTCHAR 2264
ENCODING 8804
SWIDTH 390 0
DWIDTH 13 0
BBX 8 13 0 2
BITMAP
07
07
07
3F
3F
FF
FF
FF
3F
3F
07
07
07
ENDCHAR
STARTCHAR 2265
ENCODING 8805
SWIDTH 390 0
DWIDTH 13 0
BBX 8 13 0 2
BITMAP
E0
E0
E0
F8
F8
FF
FF
FF
F8
F8
E0
E0
E0
ENDCHAR
STARTCHAR F001
ENCODING 61441
SWIDTH 390 0
DWIDTH 13 0
BBX 10 18 0 0
BITMAP
01C0
01C0
01C0
07C0
07C0
3FC0
3FC0
3FC0
FFC0
FFC0
3FC0
3FC0
3FC0
07C0
07C0
01C0
01C0
01C0
ENDCHAR
STARTCHAR F002
ENCODING 61442
SWIDTH 390 0
DWIDTH 13 0
BBX 10 18 0 0
BITMAP
E000
E000
E000
F800
F800
FF00
FF00
FF00
FFC0
FFC0
FF00
FF00
FF00
F800
F800
E000
E000
E000
ENDCHAR
ENDFONT
